<svg xmlns="http://www.w3.org/2000/svg" xmlns:xlink="http://www.w3.org/1999/xlink" width="81.767" height="81.767" viewBox="0 0 81.767 81.767">
  <defs>
    <linearGradient id="linear-gradient" x1="-141.707" y1="-296.765" x2="-140.707" y2="-296.765" gradientUnits="objectBoundingBox">
      <stop offset="0" stop-color="#0060db"/>
      <stop offset="0.981" stop-color="#ff89b2"/>
    </linearGradient>
    <linearGradient id="linear-gradient-2" x1="-177.982" y1="-293.327" x2="-176.982" y2="-293.327" xlink:href="#linear-gradient"/>
    <linearGradient id="linear-gradient-3" x1="-186.067" y1="-242.528" x2="-185.067" y2="-242.528" xlink:href="#linear-gradient"/>
    <linearGradient id="linear-gradient-4" x1="-132.243" y1="-237.689" x2="-131.244" y2="-237.689" xlink:href="#linear-gradient"/>
  </defs>
  <g id="Group_11" data-name="Group 11" transform="translate(-109.954 -86.226)">
    <circle id="Ellipse_1" data-name="Ellipse 1" cx="21.837" cy="21.837" r="21.837" transform="matrix(0.944, -0.33, 0.33, 0.944, 123.021, 113.697)" fill="none" stroke="#707070" stroke-miterlimit="10" stroke-width="0.5"/>
    <circle id="Ellipse_2" data-name="Ellipse 2" cx="29.324" cy="29.324" r="29.324" transform="translate(110.3 118.363) rotate(-32.825)" fill="none" stroke="#707070" stroke-miterlimit="10" stroke-width="0.5"/>
    <path id="Path_1" data-name="Path 1" d="M132.118,152.228a31.361,31.361,0,0,1-12.357-29.085" fill="none" stroke="#707070" stroke-miterlimit="10" stroke-width="0.5"/>
    <path id="Path_2" data-name="Path 2" d="M165.849,99.617a31.328,31.328,0,0,1,10.6,45.524" fill="none" stroke="#707070" stroke-miterlimit="10" stroke-width="0.5"/>
    <g id="Group_6" data-name="Group 6">
      <g id="Group_5" data-name="Group 5">
        <path id="Path_3" data-name="Path 3" d="M134.719,149.313a.181.181,0,0,1,.041.25h0a.18.18,0,0,1-.25.04h0a.181.181,0,0,1-.041-.25h0a.189.189,0,0,1,.083-.063h0A.177.177,0,0,1,134.719,149.313Zm1.471.991a.176.176,0,0,1,.057.246h0a.18.18,0,0,1-.246.057h0a.179.179,0,0,1-.057-.246h0a.177.177,0,0,1,.089-.074h0A.176.176,0,0,1,136.19,150.3Zm1.533.894h0a.176.176,0,0,1,.072.242h0a.178.178,0,0,1-.241.072h0a.181.181,0,0,1-.073-.242h0a.187.187,0,0,1,.1-.082h0A.174.174,0,0,1,137.723,151.2Zm1.589.793a.182.182,0,0,1,.088.238h0a.182.182,0,0,1-.238.087h0a.179.179,0,0,1-.088-.238h0a.185.185,0,0,1,.1-.092h0A.182.182,0,0,1,139.312,151.991Zm1.635.691a.178.178,0,0,1,.1.23h0a.18.18,0,0,1-.232.1h0a.18.18,0,0,1-.1-.231h0a.183.183,0,0,1,.1-.1h0A.179.179,0,0,1,140.947,152.682ZM174.9,140.476a.178.178,0,0,1,.069.243h0a.178.178,0,0,1-.243.069h0a.178.178,0,0,1-.069-.243h0a.18.18,0,0,1,.092-.079h0A.182.182,0,0,1,174.9,140.476Zm-32.279,12.79v0a.179.179,0,0,1,.117.225h0a.18.18,0,0,1-.223.117h0a.178.178,0,0,1-.117-.224h0a.175.175,0,0,1,.108-.115h0A.168.168,0,0,1,142.624,153.266Zm31.364-11.257a.18.18,0,0,1,.052.248h0a.179.179,0,0,1-.248.052h0a.178.178,0,0,1-.051-.246h0a.174.174,0,0,1,.086-.071h0A.178.178,0,0,1,173.988,142.009ZM144.335,153.74h0a.175.175,0,0,1,.131.216h0a.178.178,0,0,1-.214.13h0a.18.18,0,0,1-.131-.216h0a.181.181,0,0,1,.111-.125h0A.17.17,0,0,1,144.335,153.74Zm28.641-10.259a.177.177,0,0,1,.035.25h0a.179.179,0,0,1-.25.036h0a.179.179,0,0,1-.035-.25h0a.178.178,0,0,1,.079-.06h0A.177.177,0,0,1,172.976,143.481Zm-26.9,10.62h0a.181.181,0,0,1,.145.207h0a.179.179,0,0,1-.208.145h0a.177.177,0,0,1-.144-.207h0a.179.179,0,0,1,.113-.136h0A.2.2,0,0,1,146.075,154.1Zm25.8-9.217a.179.179,0,0,1,.02.251h0a.179.179,0,0,1-.252.019h0a.179.179,0,0,1-.021-.252h0a.2.2,0,0,1,.073-.05h0A.178.178,0,0,1,171.871,144.884Zm-24.038,9.467h0a.179.179,0,0,1,.158.2h0a.18.18,0,0,1-.2.159h0a.179.179,0,0,1-.158-.2h0a.177.177,0,0,1,.114-.148h0A.2.2,0,0,1,147.833,154.351Zm22.845-8.14a.179.179,0,0,1,0,.252h0a.18.18,0,0,1-.253,0h0a.178.178,0,0,1,0-.253h0a.173.173,0,0,1,.063-.043h0A.178.178,0,0,1,170.678,146.211ZM149.6,154.485a.179.179,0,0,1,.171.186h0a.179.179,0,0,1-.186.171h0a.178.178,0,0,1-.171-.186h0a.179.179,0,0,1,.116-.16h0A.2.2,0,0,1,149.6,154.485Zm19.8-7.028a.179.179,0,0,1-.011.252h0a.18.18,0,0,1-.254-.013h0a.18.18,0,0,1,.012-.252h0a.241.241,0,0,1,.058-.036h0A.178.178,0,0,1,169.4,147.457ZM151.383,154.5a.179.179,0,0,1,.182.174h0a.178.178,0,0,1-.175.184h0a.181.181,0,0,1-.183-.175h0a.182.182,0,0,1,.117-.172h0A.187.187,0,0,1,151.383,154.5Zm16.662-5.885a.177.177,0,0,1-.029.251h0a.179.179,0,0,1-.252-.029h0a.18.18,0,0,1,.03-.252h0a.178.178,0,0,1,.047-.025h0A.18.18,0,0,1,168.045,148.619Zm-14.89,5.788a.178.178,0,0,1,.193.162h0a.178.178,0,0,1-.162.193h0a.178.178,0,0,1-.194-.161h0a.179.179,0,0,1,.116-.183h0A.17.17,0,0,1,153.155,154.407Zm13.46-4.715a.178.178,0,0,1-.045.248h0a.181.181,0,0,1-.249-.046h0a.178.178,0,0,1,.046-.248h0a.154.154,0,0,1,.038-.02h0A.176.176,0,0,1,166.615,149.692Zm-11.7,4.5a.179.179,0,0,1,.2.15h0a.176.176,0,0,1-.148.2h0a.179.179,0,0,1-.205-.148h0a.179.179,0,0,1,.113-.2h0Zm10.2-3.526a.179.179,0,0,1-.061.244h0a.178.178,0,0,1-.245-.062h0a.179.179,0,0,1,.061-.245h0a.155.155,0,0,1,.029-.014h0A.176.176,0,0,1,165.119,150.668Zm-8.459,3.2h0a.177.177,0,0,1,.213.135h0a.177.177,0,0,1-.135.213h0a.177.177,0,0,1-.213-.135h0a.178.178,0,0,1,.111-.206h0Zm6.9-2.324a.18.18,0,0,1-.077.241h0a.183.183,0,0,1-.242-.079h0a.178.178,0,0,1,.078-.239h0a.075.075,0,0,1,.02-.01h0A.179.179,0,0,1,163.563,151.544Zm-5.183,1.885a.179.179,0,0,1,.222.121h0a.178.178,0,0,1-.121.221h0a.176.176,0,0,1-.221-.121h0a.177.177,0,0,1,.107-.217h0A.038.038,0,0,1,158.38,153.429Zm3.574-1.111a.18.18,0,0,1-.093.235h0a.181.181,0,0,1-.235-.093h0a.179.179,0,0,1,.093-.235h0l.008,0h0A.178.178,0,0,1,161.954,152.318Zm-1.886.561h0a.18.18,0,0,1,.228.109h0a.177.177,0,0,1-.107.228h0a.177.177,0,0,1-.227-.108h0a.176.176,0,0,1,.1-.227h0Z" fill="none" stroke="#707070" stroke-miterlimit="10" stroke-width="0.5"/>
      </g>
    </g>
    <g id="Group_8" data-name="Group 8">
      <g id="Group_7" data-name="Group 7">
        <path id="Path_4" data-name="Path 4" d="M176.992,119.74a25.469,25.469,0,0,1-2.583,19.494l-8.333-4.9a15.747,15.747,0,0,0,1.591-12.054ZM127.9,116.388l8.756,4.093a15.532,15.532,0,0,0-.468,12.146l.016.042-9.045,3.407-.016-.042A25.122,25.122,0,0,1,127.9,116.388Z" fill="none" stroke="#707070" stroke-miterlimit="10" stroke-width="0.5"/>
      </g>
    </g>
    <circle id="Ellipse_3" data-name="Ellipse 3" cx="23.985" cy="23.985" r="23.985" transform="translate(117.194 131.421) rotate(-52.302)" fill="none" stroke="#707070" stroke-miterlimit="10" stroke-width="0.5"/>
    <path id="Path_6" data-name="Path 6" d="M119.511,123.237a.268.268,0,1,1,.345.157A.267.267,0,0,1,119.511,123.237Z" fill="url(#linear-gradient)"/>
    <path id="Path_7" data-name="Path 7" d="M131.867,152.322a.268.268,0,1,1,.345.157A.268.268,0,0,1,131.867,152.322Z" fill="url(#linear-gradient-2)"/>
    <path id="Path_8" data-name="Path 8" d="M176.2,145.236a.268.268,0,1,1,.346.156A.268.268,0,0,1,176.2,145.236Z" fill="url(#linear-gradient-3)"/>
    <path id="Path_9" data-name="Path 9" d="M165.576,99.72a.269.269,0,1,1,.346.157A.269.269,0,0,1,165.576,99.72Z" fill="url(#linear-gradient-4)"/>
  </g>
</svg>
